Murder in the first 1995 BRrip 720p AC3 PeeZShaC 

General

Unique ID: 300924859510906880029902691188385941697 (0xE26405113C89BFC2B05F15905FF288C1)
Format: Matroska
File size: 2.34 GiB
Duration: 2h 2mn
Overall bit rate: 2 738 Kbps
Writing application: HandBrake 0.9.5
Writing library: libmkv 0.6.4.1 


 

Video
ID: 1
Format: AVC
Format/Info: Advanced Video Codec
Format profile: Main@L3.1
Format settings, CABAC: Yes
Format settings, ReFrames: 4 frames
Format settings, GOP: M=3, N=59
Codec ID: V_MPEG4/ISO/AVC
Duration: 2h 2mn
Bit rate: 2 509 Kbps
Width: 1 274 pixels
Height: 720 pixels
Display aspect ratio: 16:9
Frame rate mode: Variable
Frame rate: 23.976 fps
Color space: YUV
Chroma subsampling: 4:2:0
Bit depth: 8 bits
Scan type: Progressive
Bits/(Pixel*Frame): 0.114
Stream size: 2.11 GiB (90%)
Writing library: x264 core 112
Encoding settings: cabac=1 / ref=2 / deblock=1:0:0 / analyse=0x1:0x111 / me=hex / subme=6 / psy=1 / psy_rd=1.00:0.00 / mixed_ref=0 / me_range=16 / chroma_me=1 / trellis=0 / 8x8dct=0 / cqm=0 / deadzone=21,11 / fast_pskip=1 / chroma_qp_offset=-2 / threads=3 / sliced_threads=0 / nr=0 / decimate=1 / interlaced=0 / constrained_intra=0 / bframes=2 / b_pyramid=2 / b_adapt=1 / b_bias=0 / direct=1 / weightb=0 / open_gop=0 / weightp=2 / keyint=240 / keyint_min=23 / scenecut=40 / intra_refresh=0 / rc_lookahead=40 / rc=2pass / mbtree=1 / bitrate=2509 / ratetol=1.0 / qcomp=0.60 / qpmin=3 / qpmax=51 / qpstep=4 / cplxblur=20.0 / qblur=0.5 / ip_ratio=1.40 / aq=1:1.00
Language: English
Color primaries: BT.709-5, BT.1361, IEC 61966-2-4, SMPTE RP177
Transfer characteristics: BT.709-5, BT.1361
Matrix coefficients: BT.709-5, BT.1361, IEC 61966-2-4 709, SMPTE RP177 

Audio
ID: 2
Format: AC-3
Format/Info: Audio Coding 3
Mode extension: CM (complete main)
Codec ID: A_AC3
Duration: 2h 2mn
Bit rate mode: Constant
Bit rate: 224 Kbps
Channel(s): 2 channels
Channel positions: Front: L R
Sampling rate: 48.0 KHz
Bit depth: 16 bits
Compression mode: Lossy
Stream size: 196 MiB (8%)
Language: English 

Menu
00:00:00.000: Chapter 1
00:03:13.610: Chapter 2
00:11:24.976: Chapter 3
00:17:37.140: Chapter 4
00:22:08.577: Chapter 5
00:24:55.912: Chapter 6
00:29:17.047: Chapter 7
00:32:33.576: Chapter 8
00:33:23.042: Chapter 9
00:35:39.137: Chapter 10
00:37:02.011: Chapter 11
00:38:57.084: Chapter 12
00:39:58.563: Chapter 13
00:43:42.286: Chapter 14
00:48:34.203: Chapter 15
00:51:56.113: Chapter 16
00:54:15.628: Chapter 17
00:56:32.806: Chapter 18
00:58:27.045: Chapter 19
01:00:54.151: Chapter 20
01:04:22.067: Chapter 21
01:07:47.564: Chapter 22
01:11:33.581: Chapter 23
01:14:38.599: Chapter 24
01:16:26.331: Chapter 25
01:20:01.588: Chapter 26
01:25:12.524: Chapter 27
01:27:52.643: Chapter 28
01:30:24.628: Chapter 29
01:35:40.777: Chapter 30
01:37:53.284: Chapter 31
01:41:43.223: Chapter 32
01:49:19.178: Chapter 33
01:51:34.312: Chapter 34
01:53:35.016: Chapter 35
01:54:59.476: Chapter 36
01:56:22.059: Chapter 37
01:58:25.098: Chapter 38 
 
http://www.imdb.com/title/tt0113870/


Christian Slater
James Stamphill
Kevin Bacon
Henri Young
Gary Oldman
Milton Glenn

